<svg width="1500" height="282" viewBox="0 0 1500 282" fill="none" xmlns="http://www.w3.org/2000/svg">
<path fill-rule="evenodd" clip-rule="evenodd" d="M1261.87 95.4509V219.799H1202.15C1196.33 219.799 1191.36 217.748 1187.26 213.647C1183.16 209.329 1181.11 204.256 1181.11 198.427V33.9245H1134.8V192.922C1134.8 205.227 1137.61 216.561 1143.22 226.923C1148.83 237.07 1156.71 245.273 1166.86 251.534C1177 257.579 1188.77 260.601 1202.15 260.601H1262.06L1306.56 260.601V95.4509H1261.87ZM1264.46 67.6021C1270.08 72.9991 1276.66 75.6977 1284.22 75.6977C1291.13 75.6977 1297.14 73.4376 1302.25 68.9176H1361.55V190.807C1361.55 203.497 1364.44 215.185 1370.23 225.871C1376.02 236.334 1384.15 244.794 1394.61 251.25C1405.07 257.484 1417.21 260.601 1431.01 260.601H1447.71V218.524H1431.01C1425 218.524 1419.88 216.409 1415.65 212.179C1411.42 207.727 1409.3 202.495 1409.3 196.484V68.9176H1474.42V26.8407H1302.02C1296.96 22.2802 1291.03 20 1284.22 20C1276.66 20 1270.08 22.8065 1264.46 28.4194C1259.07 33.8165 1256.37 40.293 1256.37 47.8488C1256.37 55.4047 1259.07 61.9891 1264.46 67.6021ZM276.133 251.534C286.495 257.579 297.937 260.601 310.458 260.601H390.281H402.1H442.417L497.467 167.664C510.851 167.664 521.106 171.55 528.23 179.321C535.57 186.877 539.24 196.268 539.24 207.494V260.601H585.547V210.408C585.547 196.376 583.064 183.963 578.099 173.169C573.133 162.159 566.117 152.984 557.05 145.644C547.983 138.304 537.405 133.122 525.315 130.1L559.435 74.7263H621.652V192.922C621.652 205.227 624.459 216.561 630.072 226.923C635.685 237.07 643.564 245.273 653.711 251.534C663.857 257.579 675.623 260.601 689.008 260.601H705.017H705.199H751.324V190.007H789.535H795.364H801.517L827.099 235.99C831.416 243.33 837.245 249.267 844.585 253.801C852.141 258.334 860.453 260.601 869.52 260.601H898.664L933.313 260.601L949.18 214.942H1054.75L1069.97 260.601H1120.81L1046.65 58.8587C1043.2 48.9281 1037.48 41.696 1029.49 37.1625C1021.5 32.4131 1012.54 30.0384 1002.61 30.0384C992.681 30.0384 983.722 32.521 975.734 37.4863C967.962 42.2357 962.241 49.4678 958.571 59.1825L898.664 222.614V219.799H876.644C874.917 219.799 873.406 219.475 872.11 218.828C870.815 217.964 869.736 216.885 868.872 215.59L848.147 179.321C859.805 172.629 869.196 163.562 876.32 152.12C883.444 140.462 887.006 127.078 887.006 111.966C887.006 96.4224 883.336 82.8218 875.996 71.1642C868.872 59.5065 859.157 50.4395 846.852 43.963C834.763 37.2707 821.27 33.9245 806.374 33.9245H731.105H705.017H584.575H558.507H532.439L477.713 126.538C470.805 125.675 464.76 123.408 459.579 119.738C454.398 116.068 450.404 111.426 447.598 105.813C444.791 99.9845 443.388 93.7239 443.388 87.0316V33.9245H402.1H397.081H308.839C296.75 33.9245 285.632 36.9468 275.485 42.9915C265.555 48.8204 257.567 56.7001 251.522 66.6307C245.693 76.5612 242.779 87.6792 242.779 99.9845C242.779 108.836 244.722 117.255 248.608 125.243C252.494 133.23 257.783 140.247 264.475 146.291C257.783 152.336 252.494 159.352 248.608 167.34C244.722 175.327 242.779 183.855 242.779 192.922C242.779 205.443 245.801 216.885 251.846 227.247C257.891 237.394 265.986 245.489 276.133 251.534ZM397.081 74.7263H314.02C309.487 74.7263 305.277 75.9136 301.391 78.2883C297.721 80.4471 294.699 83.4695 292.324 87.3554C290.165 91.0254 289.086 95.2351 289.086 99.9845C289.086 104.518 290.165 108.728 292.324 112.614C294.699 116.284 297.721 119.306 301.391 121.681C305.277 123.839 309.487 124.919 314.02 124.919H391.09V165.721H315.963C310.998 165.721 306.464 167.016 302.363 169.607C298.261 171.981 295.023 175.22 292.648 179.321C290.273 183.423 289.086 187.957 289.086 192.922C289.086 197.887 290.273 202.421 292.648 206.522C295.023 210.624 298.261 213.862 302.363 216.237C306.464 218.612 310.998 219.799 315.963 219.799H402.1V241.031L449.541 162.482C438.962 158.597 429.679 153.092 421.692 145.967C413.92 138.627 407.875 129.776 403.558 119.414C399.24 109.052 397.081 97.286 397.081 84.1171V74.7263ZM689.008 219.799H705.017V74.7263H667.959V198.427C667.959 204.256 670.01 209.329 674.112 213.647C678.214 217.748 683.179 219.799 689.008 219.799ZM751.324 149.206H800.869C808.209 149.206 814.901 147.802 820.946 144.996C826.991 141.974 831.74 137.656 835.194 132.043C838.864 126.43 840.699 119.738 840.699 111.966C840.699 104.194 838.864 97.5019 835.194 91.8889C831.524 86.276 826.667 82.0663 820.622 79.2598C814.793 76.2374 808.209 74.7263 800.869 74.7263H751.324V149.206ZM1041.15 174.14H963.105L997.754 74.726C998.186 73.4307 998.833 72.4592 999.697 71.8116C1000.56 70.9481 1001.64 70.5163 1002.94 70.5163C1004.23 70.5163 1005.31 70.8401 1006.17 71.4878C1007.25 72.1354 1008.01 73.2148 1008.44 74.726L1041.15 174.14Z" fill="#4C5FF4"/>
<circle cx="1283.08" cy="47.8543" r="20.5879" fill="#CCEE00"/>
<circle cx="1283.08" cy="47.8543" r="13.3216" fill="#4C5FF4"/>
<circle cx="1283.08" cy="47.8542" r="8.47739" fill="#CCEE00"/>
<mask id="mask0_204_5" style="mask-type:alpha" maskUnits="userSpaceOnUse" x="26" y="34" width="183" height="227">
<path d="M128.327 253.405C124.366 263.532 110.035 263.532 106.074 253.405L26.8324 50.8328C23.7673 42.9973 29.5454 34.5327 37.959 34.5327L196.442 34.5327C204.855 34.5327 210.633 42.9973 207.568 50.8328L128.327 253.405Z" fill="url(#paint0_linear_204_5)"/>
</mask>
<g mask="url(#mask0_204_5)">
<path d="M21.2898 26.8937H214.647V92.6369H21.2898V26.8937Z" fill="#4C5FF4"/>
<path d="M21.2898 103.061H214.647V168.804H21.2898V103.061Z" fill="#8DB49B"/>
<path d="M21.2898 179.227H214.647V257.798H21.2898V179.227Z" fill="#CCEE00"/>
</g>
<defs>
<linearGradient id="paint0_linear_204_5" x1="117.2" y1="-47.9061" x2="117.2" y2="281.849" gradientUnits="userSpaceOnUse">
<stop stop-color="#4C5FF4"/>
<stop offset="1" stop-color="#2C378E"/>
</linearGradient>
</defs>
</svg>
